<svg width="231" height="231" viewBox="0 0 231 231" fill="none" xmlns="http://www.w3.org/2000/svg">
<path d="M209.034 156.236C208.692 155.21 208.03 154.094 207.191 153.255L169.435 115.5L228.766 56.1699C231.745 53.1909 231.745 48.3615 228.766 45.3829L185.617 2.2342C184.187 0.803988 182.247 0 180.223 0C178.2 0 176.26 0.803988 174.83 2.2342C172.72 4.34433 118.978 58.0861 115.5 61.5641L83.1402 29.2039C83.1402 29.2039 83.1393 29.203 83.1388 29.2016C83.1384 29.2007 83.1379 29.2007 83.1366 29.2003L61.5638 7.6275C52.622 -1.31516 38.1462 -1.31742 29.2026 7.6275L7.62852 29.2025C-1.29385 38.1244 -1.29385 52.6418 7.62852 61.5637L61.5647 115.5C60.5757 116.488 7.5622 169.501 2.23431 174.829C-0.744771 177.808 -0.744771 182.637 2.23431 185.616L45.383 228.766C46.8137 230.196 48.7532 231 50.7763 231C52.7994 231 54.7398 230.196 56.1696 228.766L115.5 169.436L153.254 207.191C154.091 208.027 155.202 208.689 156.236 209.034L220.959 230.608C223.692 231.519 226.717 230.813 228.765 228.765C230.808 226.722 231.521 223.7 230.608 220.959L209.034 156.236ZM137.075 61.5637L147.862 72.3512C149.351 73.8405 151.304 74.5854 153.255 74.5854C155.207 74.5854 157.16 73.8405 158.649 72.3512C161.628 69.373 161.628 64.5428 158.649 61.5641L147.862 50.7771L158.649 39.99L169.436 50.7771C170.926 52.2664 172.878 53.0113 174.83 53.0113C176.781 53.0113 178.734 52.2669 180.223 50.7771C183.202 47.798 183.202 42.9687 180.223 39.99L169.436 29.203L180.223 18.4159L212.584 50.7775L158.649 104.712L126.288 72.3508L137.075 61.5637ZM191.011 158.649L180.223 169.436L66.9576 56.1704L77.7446 45.3833L191.011 158.649ZM34.5964 66.9575L18.4156 50.7766C15.4419 47.8025 15.4419 42.9633 18.4156 39.9896L39.9901 18.415C42.971 15.4346 47.7959 15.4332 50.7772 18.415L66.958 34.5958C65.48 36.0739 36.0686 65.4853 34.5964 66.9575ZM50.7772 212.584L18.4156 180.223L29.2031 169.436L39.9901 180.223C41.4795 181.712 43.4317 182.457 45.3834 182.457C47.3352 182.457 49.2879 181.712 50.7768 180.223C53.7558 177.245 53.7558 172.415 50.7768 169.436L39.9901 158.649L50.7772 147.862L61.5647 158.649C63.054 160.138 65.0062 160.883 66.958 160.883C68.9098 160.883 70.8625 160.138 72.3513 158.649C75.3304 155.669 75.3304 150.84 72.3513 147.862L61.5638 137.074L72.3509 126.287L104.712 158.649L50.7772 212.584ZM158.649 191.011L45.3834 77.7445L56.1705 66.9575L169.436 180.223L158.649 191.011ZM172.769 198.464L198.465 172.769L211.312 211.311L172.769 198.464Z" fill="#BDDAFE"/>
</svg>
