<svg width="231" height="231" viewBox="0 0 231 231" fill="none" xmlns="http://www.w3.org/2000/svg">
<path d="M28.875 57.75H48.125M48.125 57.75H202.125M48.125 57.75V192.5C48.125 197.605 50.1531 202.502 53.7632 206.112C57.3733 209.722 62.2696 211.75 67.375 211.75H163.625C168.73 211.75 173.627 209.722 177.237 206.112C180.847 202.502 182.875 197.605 182.875 192.5V57.75M77 57.75V38.5C77 33.3946 79.0281 28.4983 82.6382 24.8882C86.2483 21.2781 91.1446 19.25 96.25 19.25H134.75C139.855 19.25 144.752 21.2781 148.362 24.8882C151.972 28.4983 154 33.3946 154 38.5V57.75M96.25 105.875V163.625M134.75 105.875V163.625" stroke="#620000" stroke-width="22" stroke-linecap="round" stroke-linejoin="round"/>
</svg>
