<svg width="231" height="231" viewBox="0 0 231 231" fill="none" xmlns="http://www.w3.org/2000/svg">
<path d="M105.875 38.4997H38.5C33.3946 38.4997 28.4983 40.5279 24.8882 44.1379C21.2781 47.748 19.25 52.6443 19.25 57.7497V192.5C19.25 197.605 21.2781 202.501 24.8882 206.112C28.4983 209.722 33.3946 211.75 38.5 211.75H173.25C178.355 211.75 183.252 209.722 186.862 206.112C190.472 202.501 192.5 197.605 192.5 192.5V125.125M178.062 24.0622C181.892 20.2332 187.085 18.082 192.5 18.082C197.915 18.082 203.108 20.2332 206.938 24.0622C210.767 27.8913 212.918 33.0846 212.918 38.4997C212.918 43.9149 210.767 49.1082 206.938 52.9372L115.5 144.375L77 154L86.625 115.5L178.062 24.0622Z" stroke="#002F20" stroke-width="22" stroke-linecap="round" stroke-linejoin="round"/>
</svg>
