<svg width="243" height="243" viewBox="0 0 243 243" fill="none" xmlns="http://www.w3.org/2000/svg">
<rect x="11.8738" y="9.28076" width="221.837" height="228.324" rx="45" fill="#C6D2FF"/>
<path fill-rule="evenodd" clip-rule="evenodd" d="M175.617 6H67.371C29.6494 6 6 32.7086 6 70.5051V172.494C6 210.291 29.537 236.999 67.371 236.999H175.604C213.451 236.999 237 210.291 237 172.494V70.5051C237 32.7086 213.451 6 175.617 6Z" stroke="#193AB7" stroke-width="11" stroke-linecap="round" stroke-linejoin="round"/>
<path fill-rule="evenodd" clip-rule="evenodd" d="M105.167 121.499C105.167 134.26 94.8148 144.624 82.0412 144.624C69.28 144.624 58.9287 134.26 58.9287 121.499C58.9287 108.738 69.28 98.374 82.0412 98.374C94.8148 98.374 105.167 108.738 105.167 121.499Z" stroke="#193AB7" stroke-width="8" stroke-linecap="round" stroke-linejoin="round"/>
<path d="M105.167 121.499H184.056V144.624" stroke="#193AB7" stroke-width="8" stroke-linecap="round" stroke-linejoin="round"/>
<path d="M148.734 144.619V121.494" stroke="#193AB7" stroke-width="8" stroke-linecap="round" stroke-linejoin="round"/>
</svg>
