<svg width="231" height="231" viewBox="0 0 231 231" fill="none" xmlns="http://www.w3.org/2000/svg">
<path d="M89.0313 211.75L85.1813 180.95C83.0959 180.148 81.1308 179.185 79.286 178.062C77.4412 176.94 75.6365 175.736 73.8719 174.453L45.2375 186.484L18.7688 140.766L43.5532 121.997C43.3928 120.874 43.3125 119.791 43.3125 118.748V112.252C43.3125 111.209 43.3928 110.126 43.5532 109.003L18.7688 90.2344L45.2375 44.5156L73.8719 56.5469C75.6365 55.2635 77.4813 54.0604 79.4063 52.9375C81.3313 51.8146 83.2563 50.8521 85.1813 50.05L89.0313 19.25H141.969L145.819 50.05C147.904 50.8521 149.869 51.8146 151.714 52.9375C153.559 54.0604 155.364 55.2635 157.128 56.5469L185.763 44.5156L212.231 90.2344L187.447 109.003C187.607 110.126 187.688 111.209 187.688 112.252V118.748C187.688 119.791 187.527 120.874 187.206 121.997L211.991 140.766L185.522 186.484L157.128 174.453C155.364 175.736 153.519 176.94 151.594 178.062C149.669 179.185 147.744 180.148 145.819 180.95L141.969 211.75H89.0313ZM115.981 149.188C125.285 149.188 133.226 145.899 139.803 139.322C146.38 132.745 149.669 124.804 149.669 115.5C149.669 106.196 146.38 98.2552 139.803 91.6781C133.226 85.101 125.285 81.8125 115.981 81.8125C106.517 81.8125 98.536 85.101 92.0391 91.6781C85.5422 98.2552 82.2938 106.196 82.2938 115.5C82.2938 124.804 85.5422 132.745 92.0391 139.322C98.536 145.899 106.517 149.188 115.981 149.188Z" fill="white"/>
</svg>
