<svg width="222" height="231" viewBox="0 0 222 231" fill="none" xmlns="http://www.w3.org/2000/svg">
<path d="M203.699 138.196V100.134H199.487C181.653 100.138 165.775 103.224 152.68 107.196C150.113 102.004 147.148 96.6442 144.608 92.234C155.867 82.6258 163.016 68.3417 163.016 52.3833C163.015 23.451 139.561 0 110.632 0C81.7032 0 58.249 23.451 58.249 52.3833C58.249 68.3422 65.3978 82.6263 76.6568 92.234C74.1167 96.6442 71.1521 102.004 68.5849 107.196C55.4901 103.224 39.612 100.138 21.7803 100.134H17.5691V138.196C4.85777 138.446 0 148.926 0 161.826C0 174.726 4.85777 185.206 17.5691 185.452V215.749L21.6319 215.891L21.7501 215.894C23.0134 215.945 34.599 216.44 50.2917 218.542C65.9807 220.637 85.7863 224.36 103.375 230.747L104.073 231H117.191L117.889 230.747C136.047 224.151 156.563 220.402 172.482 218.343C180.439 217.312 187.251 216.696 192.062 216.341C194.467 216.163 196.367 216.049 197.668 215.981C198.315 215.948 198.813 215.924 199.143 215.91C199.311 215.904 199.433 215.897 199.514 215.894L199.635 215.89L203.698 215.749V185.451C216.405 185.206 221.263 174.725 221.263 161.825C221.263 148.926 216.406 138.446 203.699 138.196ZM99.2384 220.455C82.1413 215.018 64.1851 211.855 49.8671 209.995C39.3088 208.624 30.7383 207.974 25.988 207.687V184.084C35.1246 180.817 41.6639 172.088 41.6639 161.826C41.6639 151.564 35.1246 142.836 25.988 139.565V108.618C47.923 109.248 66.6205 114.705 80.0424 120.17C87.1745 123.073 92.8137 125.974 96.6442 128.137C97.6349 128.693 98.4971 129.198 99.2384 129.646V220.455ZM116.413 222.345C116.188 222.422 115.962 222.5 115.736 222.581H105.529C105.303 222.5 105.077 222.422 104.851 222.345V132.405H116.413V222.345ZM195.276 139.564C186.14 142.835 179.604 151.564 179.604 161.826C179.604 172.087 186.14 180.817 195.276 184.084V207.687C190.526 207.973 181.956 208.623 171.397 209.994C157.08 211.854 139.127 215.017 122.026 220.455V129.646C125.688 127.446 132.402 123.737 141.559 120.034C154.954 114.614 173.527 109.24 195.277 108.617L195.276 139.564Z" fill="#00354E"/>
</svg>
