<svg width="231" height="272" viewBox="0 0 231 272" fill="none" xmlns="http://www.w3.org/2000/svg">
<path d="M56.8155 29.3097C56.8155 13.1152 69.9332 0 86.0908 0C102.256 0 115.369 13.118 115.369 29.3097C115.369 45.4879 102.256 58.648 86.0908 58.648C69.9342 58.648 56.8155 45.4888 56.8155 29.3097ZM206.609 80.3403V272H0V126.414H11.4783V199.207H81.3044V210.701H11.4783V260.506H111.018L110.957 190.587H49.7391C28.6957 190.587 19.1993 174.67 20.9019 159.204L29.3767 83.9368C31.0793 68.4712 44.9862 57.3186 60.4263 59.0197C69.3306 60.0024 76.5897 64.9389 81.3837 71.7393C84.3002 75.876 93.7764 87.974 93.7764 87.974L126.645 70.2729L125.297 67.7452C124.4 66.0652 125.033 63.9753 126.711 63.0769C128.389 62.1814 130.476 62.8125 131.373 64.4935L132.72 67.0163C138.828 63.8795 146.341 66.1936 149.607 72.2718C152.882 78.3691 150.644 85.954 144.62 89.3091L149.393 98.2512L225.537 57.0159L231 67.1313L206.609 80.3403ZM195.13 260.506V147.486H129.13V122.298L108.052 133.713L102.589 123.597L143.332 101.534L138.556 92.5858L96.4337 115.269C94.5417 116.29 92.489 116.781 90.4573 116.781C87.6423 116.781 84.8674 115.838 82.6148 114.055L77.2324 161.853H120.761C131.195 161.853 139.652 170.322 139.652 180.769V260.506H195.13Z" fill="white"/>
</svg>
