<svg width="231" height="231" viewBox="0 0 231 231" fill="none" xmlns="http://www.w3.org/2000/svg">
<ellipse cx="118" cy="117.5" rx="99" ry="99.5" fill="#C6D2FF"/>
<path fill-rule="evenodd" clip-rule="evenodd" d="M231 115.5C231 179.288 179.288 231 115.5 231C51.7111 231 0 179.288 0 115.5C0 51.7111 51.7111 0 115.5 0C179.288 0 231 51.7111 231 115.5ZM150.15 80.85C150.15 99.9872 134.637 115.5 115.5 115.5C96.3628 115.5 80.85 99.9872 80.85 80.85C80.85 61.7134 96.3628 46.2 115.5 46.2C134.637 46.2 150.15 61.7134 150.15 80.85ZM115.5 213.675C136.105 213.675 155.229 207.327 171.02 196.479C177.995 191.688 180.975 182.562 176.921 175.135C168.515 159.74 151.193 129.5 115.5 129.5C79.8081 129.5 62.4852 159.739 54.0787 175.135C50.0236 182.562 53.0041 191.687 59.9787 196.478C75.7701 207.326 94.8936 213.675 115.5 213.675Z" fill="#193AB7"/>
</svg>
