<svg width="75" height="133" viewBox="0 0 75 133" fill="none" xmlns="http://www.w3.org/2000/svg">
<path d="M26.0262 13.383C21.976 13.799 18.6505 18.3775 19.0295 23.7553C19.3548 28.3715 22.5171 32.1594 26.2182 31.6524C29.3216 31.2276 31.8675 27.6411 31.4556 23.465C31.1208 20.0725 28.7193 17.2841 25.9457 17.8537C23.7924 18.2959 22.0118 20.923 22.5032 23.9113C22.6812 24.9939 23.163 25.9335 23.849 26.5707C24.535 27.208 25.4913 27.5205 26.423 27.1376C27.0333 26.887 27.5205 26.3837 27.8507 25.6606C28.181 24.9372 28.2881 23.8101 27.8466 22.9153C27.4906 22.1935 27.1639 22.0506 26.6512 21.9393C26.395 21.8837 26.0365 21.8631 25.6551 22.1833C25.2737 22.5035 25.0715 23.1657 25.0715 23.6338C25.068 23.9913 25.1752 24.3356 25.3696 24.59C25.2678 24.5523 25.1669 24.4993 25.0599 24.3998C24.8101 24.1676 24.5949 23.7462 24.5307 23.3559C24.3111 22.0204 25.2003 20.7162 26.271 20.496C27.7943 20.183 29.2032 21.8205 29.3989 23.8024C29.6541 26.3896 28.001 28.7174 25.999 28.9913C23.5165 29.3314 21.3186 26.6986 21.0941 23.5124C20.825 19.6956 23.2534 16.3515 26.1906 16.05C26.2167 16.0473 26.243 16.0457 26.2692 16.0438H67.7311C67.7572 16.0465 67.7833 16.0476 67.8092 16.05C70.7464 16.3515 73.1748 19.6956 72.9057 23.5129C72.6812 26.6994 70.4833 29.3319 68.0008 28.9919C65.9986 28.7176 64.3455 26.3899 64.6009 23.8029C64.7964 21.8208 66.2053 20.1835 67.7288 20.4966C68.7995 20.7165 69.6887 22.0207 69.4689 23.3564C69.4047 23.7467 69.1895 24.1684 68.9397 24.4003C68.8327 24.4996 68.7324 24.5528 68.6308 24.5905C68.8248 24.3358 68.9318 23.9915 68.9281 23.6344C68.9281 23.1662 68.7263 22.5041 68.3451 22.1838C67.9637 21.8636 67.6054 21.8842 67.349 21.9399C66.8363 22.0512 66.5094 22.1943 66.1532 22.9158C65.7119 23.8104 65.8193 24.9378 66.1495 25.6612C66.4797 26.3845 66.9669 26.8878 67.5772 27.1382C68.5089 27.5207 69.4648 27.2085 70.1508 26.5713C70.8368 25.934 71.3185 24.9945 71.4966 23.9118C71.988 20.9238 70.2074 18.2967 68.0543 17.8542C65.2807 17.2846 62.879 20.0731 62.5444 23.4656C62.1322 27.6417 64.6788 31.2279 67.7823 31.653C71.4832 32.1596 74.6452 28.372 74.9705 23.7556C75.3495 18.3777 72.024 13.799 67.9738 13.3833C67.8897 13.3667 67.8119 13.3734 67.7313 13.3712H26.2694C26.1887 13.3648 26.1033 13.3761 26.0262 13.383ZM22.1228 0C21.5504 0 21.0862 0.598992 21.0862 1.33763V4.0129C21.0862 4.36764 21.1955 4.70793 21.3899 4.95861L25.5361 10.3091C25.7306 10.5601 25.9941 10.7011 26.2689 10.7011H67.7309C68.0057 10.7011 68.2694 10.5601 68.4637 10.3091L72.6099 4.95861C72.8043 4.70767 72.9136 4.36764 72.9136 4.0129V1.33763C72.9136 0.598992 72.4494 0 71.877 0H22.1228ZM23.1593 2.67527H70.8405V3.45858L67.3013 8.0258H26.6981L23.1593 3.45858V2.67527ZM34.5613 21.4021C33.9889 21.4021 33.5248 22.0011 33.5248 22.7398V60.1935C33.525 60.9324 36.8229 69.2222 37.3077 63.7284C37.1375 63.8747 40.1561 65.4033 37.3077 63.7284L38.3846 58.2346C38.6678 57.9911 36.352 59.1282 40.5385 56.037L41.817 30.788C41.817 30.7805 41.817 30.7731 41.817 30.7656C41.817 29.8881 43.9021 29.8632 43.89 30.7415C43.89 30.7495 43.89 30.7575 43.89 30.7656V52.1677C43.8903 52.9066 45.3505 118.667 45.9231 118.667C46.1277 118.667 51.5508 115.517 51.721 115.37V47.9301C52.0093 47.6821 52.1824 47.2645 52.1826 46.8172V30.7656C52.1826 29.8723 54.2557 29.8723 54.2557 30.7656V44.1419C54.2559 44.8808 52.8861 77.335 54.5385 76.9136C58.8462 75.8148 57.6254 74.8089 57.7692 74.7161L61 73.6173C61.351 73.3907 60.475 41.9731 60.4752 41.4664V22.7395C60.4752 22.0009 60.0111 21.4019 59.4387 21.4019L34.5613 21.4021ZM35.5979 24.0774H58.4019L59.9231 71.4198L56.6923 73.6173L56.3288 30.7656C56.3288 26.3064 50.1095 26.3064 50.1095 30.7656L49.1538 114.272H47L45.9634 30.7656V30.7891C46.0249 26.315 39.7445 26.2906 39.7445 30.7656V30.7426L39.431 54.3967L35.5983 57.6943L35.5979 24.0774Z" fill="white"/>
<path d="M2.048 123.667C1.28 123.667 0.896 123.347 0.896 122.707C0.896 122.131 1.408 121.715 2.432 121.459L3.968 121.171C5.248 120.915 6.368 120.307 7.328 119.347C8.224 118.323 9.088 116.915 9.92 115.123L38.624 55.1225C38.944 54.4825 39.264 54.0665 39.584 53.8745C39.904 53.6825 40.192 53.5865 40.448 53.5865C40.768 53.5865 41.024 53.6825 41.216 53.8745C41.472 54.0665 41.6 54.4825 41.6 55.1225L42.656 115.987C42.72 117.779 42.944 119.027 43.328 119.731C43.712 120.371 44.512 120.851 45.728 121.171L46.976 121.459C47.744 121.651 48.128 122.035 48.128 122.611C48.128 123.315 47.584 123.667 46.496 123.667H30.656C29.824 123.667 29.408 123.347 29.408 122.707C29.408 122.003 30.048 121.587 31.328 121.459L33.248 121.267C34.336 121.139 35.072 120.787 35.456 120.211C35.904 119.635 36.128 118.643 36.128 117.235L35.936 102.355C35.936 100.691 35.072 99.8585 33.344 99.8585H23.072C21.408 99.8585 20.16 100.691 19.328 102.355L13.088 115.219C11.36 118.867 11.936 120.883 14.816 121.267L16.16 121.459C17.12 121.587 17.6 121.971 17.6 122.611C17.6 123.315 17.056 123.667 15.968 123.667H2.048ZM23.456 96.9785H34.208C35.296 96.9785 35.84 96.4345 35.84 95.3465L35.648 69.1385H35.168L22.592 95.3465C22.336 95.7945 22.304 96.1785 22.496 96.4985C22.688 96.8185 23.008 96.9785 23.456 96.9785Z" fill="#A1B1FF"/>
</svg>
