<svg width="231" height="213" viewBox="0 0 231 213" fill="none" xmlns="http://www.w3.org/2000/svg">
<path fill-rule="evenodd" clip-rule="evenodd" d="M182.944 4.12524V208.808H210.54C219.574 208.808 226.834 201.548 226.834 192.473V20.419C226.834 11.3852 219.574 4.08398 210.54 4.08398H182.944V4.12524Z" fill="#F0F3F5"/>
<path fill-rule="evenodd" clip-rule="evenodd" d="M155.348 4.12524V208.808H182.944C191.978 208.808 199.279 201.548 199.279 192.473V20.419C199.279 11.3852 191.978 4.08398 182.944 4.08398H155.348V4.12524Z" fill="#F0F3F5"/>
<path fill-rule="evenodd" clip-rule="evenodd" d="M127.752 4.12524V208.808H155.348C164.382 208.808 171.642 201.548 171.642 192.473V20.419C171.642 11.3852 164.382 4.08398 155.348 4.08398H127.752V4.12524Z" fill="#F0F3F5"/>
<path d="M26.294 0H133.585C142.578 0 149.879 7.30125 149.879 16.2938V188.389C149.879 197.381 142.578 204.724 133.544 204.724H26.294C17.3015 204.724 10.0002 197.423 10.0002 188.43V16.2938C10.0002 7.30125 17.3015 0 26.294 0Z" fill="#F0F3F5"/>
<path fill-rule="evenodd" clip-rule="evenodd" d="M193.752 4.12524C202.785 4.12524 210.045 11.3852 210.045 20.4602V192.514C210.045 201.548 202.785 208.849 193.752 208.849H210.54C219.574 208.849 226.834 201.589 226.834 192.514V20.419C226.834 11.3852 219.574 4.08398 210.54 4.08398H193.752V4.12524Z" fill="#7C85FF"/>
<path fill-rule="evenodd" clip-rule="evenodd" d="M166.155 4.12524C175.189 4.12524 182.449 11.3852 182.449 20.4602V192.514C182.449 201.548 175.189 208.849 166.155 208.849H182.944C191.978 208.849 199.279 201.589 199.279 192.514V20.419C199.279 11.3852 192.019 4.08398 182.944 4.08398H166.155V4.12524Z" fill="#C6D2FF"/>
<path fill-rule="evenodd" clip-rule="evenodd" d="M138.518 4.12524C147.551 4.12524 154.811 11.3852 154.811 20.4602V192.514C154.811 201.548 147.551 208.849 138.518 208.849H155.306C164.34 208.849 171.641 201.589 171.641 192.514V20.419C171.641 11.3852 164.381 4.08398 155.306 4.08398H138.518V4.12524Z" fill="#193AB7"/>
<path fill-rule="evenodd" clip-rule="evenodd" d="M110.921 4.12524C119.955 4.12524 127.215 11.3852 127.215 20.4602V192.514C127.215 201.548 119.955 208.849 110.921 208.849H127.71C136.744 208.849 144.004 201.589 144.004 192.514V20.419C144.004 11.3852 136.744 4.08398 127.71 4.08398H110.921V4.12524Z" fill="#07143B"/>
<path d="M20.4602 0.5H210.54C221.567 0.500019 230.5 9.43451 230.5 20.4189V192.514C230.5 203.539 221.526 212.474 210.54 212.474H20.4602C9.43452 212.474 0.500244 203.499 0.500244 192.514V20.4189L0.50708 19.9053C0.781526 9.15786 9.64551 0.500021 20.4602 0.5ZM20.4192 7.75C13.4215 7.75 7.70923 13.4169 7.70923 20.4189V192.473C7.70931 199.402 13.3054 205.067 20.2092 205.18L20.2532 205.224H127.71C134.67 205.224 140.379 199.512 140.379 192.514V20.4189C140.379 13.4614 134.711 7.75 127.71 7.75H20.4192ZM143.605 8.55176C146.101 11.8536 147.629 15.9565 147.629 20.4189V192.473C147.629 196.975 146.102 201.038 143.604 204.383L143.504 204.517V205.224H155.307C162.307 205.223 168.017 199.513 168.017 192.514V20.4189C168.017 13.4593 162.306 7.75021 155.307 7.75H142.999L143.605 8.55176ZM171.201 8.55176C173.698 11.8536 175.225 15.9566 175.225 20.4189V192.514C175.225 197.016 173.698 201.08 171.199 204.425L170.603 205.224H182.903C189.902 205.224 195.613 199.514 195.613 192.514V20.4189C195.613 13.4592 189.901 7.75 182.903 7.75H170.595L171.201 8.55176ZM198.798 8.55176C201.294 11.8536 202.822 15.9567 202.822 20.4189V192.473C202.821 196.975 201.295 201.038 198.796 204.383L198.198 205.183H210.499C217.485 205.182 223.186 199.495 223.208 192.514H223.209V20.4189C223.209 13.4593 217.498 7.75015 210.499 7.75H198.192L198.798 8.55176Z" fill="#010515" stroke="white"/>
<path d="M56.0262 60.383C51.976 60.799 48.6505 65.3775 49.0295 70.7553C49.3548 75.3715 52.5171 79.1594 56.2182 78.6524C59.3216 78.2276 61.8675 74.6411 61.4556 70.465C61.1208 67.0725 58.7193 64.2841 55.9457 64.8537C53.7924 65.2959 52.0118 67.923 52.5032 70.9113C52.6812 71.9939 53.163 72.9335 53.849 73.5707C54.535 74.208 55.4913 74.5205 56.423 74.1376C57.0333 73.887 57.5205 73.3837 57.8507 72.6606C58.181 71.9372 58.2881 70.8101 57.8466 69.9153C57.4906 69.1935 57.1639 69.0506 56.6512 68.9393C56.395 68.8837 56.0365 68.8631 55.6551 69.1833C55.2737 69.5035 55.0715 70.1657 55.0715 70.6338C55.068 70.9913 55.1752 71.3356 55.3696 71.59C55.2678 71.5523 55.1669 71.4993 55.0599 71.3998C54.8101 71.1676 54.5949 70.7462 54.5307 70.3559C54.3111 69.0204 55.2003 67.7162 56.271 67.496C57.7943 67.183 59.2032 68.8205 59.3989 70.8024C59.6541 73.3896 58.001 75.7174 55.999 75.9913C53.5165 76.3314 51.3186 73.6986 51.0941 70.5124C50.825 66.6956 53.2534 63.3515 56.1906 63.05C56.2167 63.0473 56.243 63.0457 56.2692 63.0438H97.7311C97.7572 63.0465 97.7833 63.0476 97.8092 63.05C100.746 63.3515 103.175 66.6956 102.906 70.5129C102.681 73.6994 100.483 76.3319 98.0008 75.9919C95.9986 75.7176 94.3455 73.3899 94.6009 70.8029C94.7964 68.8208 96.2053 67.1835 97.7288 67.4966C98.7995 67.7165 99.6887 69.0207 99.4689 70.3564C99.4047 70.7467 99.1895 71.1684 98.9397 71.4003C98.8327 71.4996 98.7324 71.5528 98.6308 71.5905C98.8248 71.3358 98.9318 70.9915 98.9281 70.6344C98.9281 70.1662 98.7263 69.5041 98.3451 69.1838C97.9637 68.8636 97.6054 68.8842 97.349 68.9399C96.8363 69.0512 96.5094 69.1943 96.1532 69.9158C95.7119 70.8104 95.8193 71.9378 96.1495 72.6612C96.4797 73.3845 96.9669 73.8878 97.5772 74.1382C98.5089 74.5207 99.4648 74.2085 100.151 73.5713C100.837 72.934 101.319 71.9945 101.497 70.9118C101.988 67.9238 100.207 65.2967 98.0543 64.8542C95.2807 64.2846 92.879 67.0731 92.5444 70.4656C92.1322 74.6417 94.6788 78.2279 97.7823 78.653C101.483 79.1596 104.645 75.372 104.971 70.7556C105.349 65.3777 102.024 60.799 97.9738 60.3833C97.8897 60.3667 97.8119 60.3734 97.7313 60.3712H56.2694C56.1887 60.3648 56.1033 60.3761 56.0262 60.383ZM52.1228 47C51.5504 47 51.0862 47.599 51.0862 48.3376V51.0129C51.0862 51.3676 51.1955 51.7079 51.3899 51.9586L55.5361 57.3091C55.7306 57.5601 55.9941 57.7011 56.2689 57.7011H97.7309C98.0057 57.7011 98.2694 57.5601 98.4637 57.3091L102.61 51.9586C102.804 51.7077 102.914 51.3676 102.914 51.0129V48.3376C102.914 47.599 102.449 47 101.877 47H52.1228ZM53.1593 49.6753H100.84V50.4586L97.3013 55.0258H56.6981L53.1593 50.4586V49.6753ZM64.5613 68.4021C63.9889 68.4021 63.5248 69.0011 63.5248 69.7398V107.193C63.525 107.932 66.8229 116.222 67.3077 110.728C67.1375 110.875 70.1561 112.403 67.3077 110.728L68.3846 105.235C68.6678 104.991 66.352 106.128 70.5385 103.037L71.817 77.788C71.817 77.7805 71.817 77.7731 71.817 77.7656C71.817 76.8881 73.9021 76.8632 73.89 77.7415C73.89 77.7495 73.89 77.7575 73.89 77.7656V99.1677C73.8903 99.9066 75.3505 165.667 75.9231 165.667C76.1277 165.667 81.5508 162.517 81.721 162.37V94.9301C82.0093 94.6821 82.1824 94.2645 82.1826 93.8172V77.7656C82.1826 76.8723 84.2557 76.8723 84.2557 77.7656V91.1419C84.2559 91.8808 82.8861 124.335 84.5385 123.914C88.8462 122.815 87.6254 121.809 87.7692 121.716L91 120.617C91.351 120.391 90.475 88.9731 90.4752 88.4664V69.7395C90.4752 69.0009 90.0111 68.4019 89.4387 68.4019L64.5613 68.4021ZM65.5979 71.0774H88.4019L89.9231 118.42L86.6923 120.617L86.3288 77.7656C86.3288 73.3064 80.1095 73.3064 80.1095 77.7656L79.1538 161.272H77L75.9634 77.7656V77.7891C76.0249 73.315 69.7445 73.2906 69.7445 77.7656V77.7426L69.431 101.397L65.5983 104.694L65.5979 71.0774Z" fill="#010515"/>
<path d="M32.048 170.667C31.28 170.667 30.896 170.347 30.896 169.707C30.896 169.131 31.408 168.715 32.432 168.459L33.968 168.171C35.248 167.915 36.368 167.307 37.328 166.347C38.224 165.323 39.088 163.915 39.92 162.123L68.624 102.122C68.944 101.483 69.264 101.066 69.584 100.874C69.904 100.683 70.192 100.587 70.448 100.587C70.768 100.587 71.024 100.683 71.216 100.874C71.472 101.066 71.6 101.483 71.6 102.122L72.656 162.987C72.72 164.779 72.944 166.027 73.328 166.731C73.712 167.371 74.512 167.851 75.728 168.171L76.976 168.459C77.744 168.651 78.128 169.035 78.128 169.611C78.128 170.315 77.584 170.667 76.496 170.667H60.656C59.824 170.667 59.408 170.347 59.408 169.707C59.408 169.003 60.048 168.587 61.328 168.459L63.248 168.267C64.336 168.139 65.072 167.787 65.456 167.211C65.904 166.635 66.128 165.643 66.128 164.235L65.936 149.355C65.936 147.691 65.072 146.859 63.344 146.859H53.072C51.408 146.859 50.16 147.691 49.328 149.355L43.088 162.219C41.36 165.867 41.936 167.883 44.816 168.267L46.16 168.459C47.12 168.587 47.6 168.971 47.6 169.611C47.6 170.315 47.056 170.667 45.968 170.667H32.048ZM53.456 143.979H64.208C65.296 143.979 65.84 143.435 65.84 142.347L65.648 116.139H65.168L52.592 142.347C52.336 142.795 52.304 143.179 52.496 143.499C52.688 143.819 53.008 143.979 53.456 143.979Z" fill="#193AB7"/>
<path d="M26.2945 23.0548L21.863 25.5476L17.4315 23.0548V20.4212L16.1654 19.7178V23.7953L21.863 27.0002L27.5607 23.7953V19.7178L26.2945 20.4212V23.0548Z" fill="#07143B"/>
<path d="M21.863 11L13 15.5956V16.693L21.863 21.6167L29.4598 17.3964V20.8926H30.7259V15.5956L21.863 11ZM28.1937 16.6514L26.9275 17.3548L21.863 20.1685L16.7984 17.3548L15.5323 16.6514L14.6547 16.1638L21.863 12.4262L29.0712 16.1638L28.1937 16.6514Z" fill="#07143B"/>
<path d="M120.295 197.055L115.863 199.548L111.432 197.055V194.421L110.165 193.718V197.795L115.863 201L121.561 197.795V193.718L120.295 194.421V197.055Z" fill="#07143B"/>
<path d="M115.863 185L107 189.596V190.693L115.863 195.617L123.46 191.396V194.893H124.726V189.596L115.863 185ZM122.194 190.651L120.928 191.355L115.863 194.169L110.798 191.355L109.532 190.651L108.655 190.164L115.863 186.426L123.071 190.164L122.194 190.651Z" fill="#07143B"/>
</svg>
