<svg width="558" height="246" viewBox="0 0 558 246" fill="none" xmlns="http://www.w3.org/2000/svg">
<path d="M124.99 245.53C121.023 245.53 117.737 244.17 115.13 241.45C112.637 238.617 111.39 234.027 111.39 227.68V164.1C111.39 162.74 110.71 162.06 109.35 162.06H104.42C102.607 162.06 101.7 161.38 101.7 160.02C101.7 159.113 102.21 158.32 103.23 157.64C106.97 155.033 109.973 152.257 112.24 149.31C114.507 146.25 116.49 142.113 118.19 136.9C118.983 134.52 119.947 133.33 121.08 133.33C122.327 133.33 122.95 134.237 122.95 136.05V154.92C122.95 156.507 123.743 157.3 125.33 157.3H136.38C138.193 157.3 139.1 158.093 139.1 159.68C139.1 161.267 138.193 162.06 136.38 162.06H125.33C123.743 162.06 122.95 162.853 122.95 164.44V227.85C122.95 230.343 123.347 232.327 124.14 233.8C124.933 235.16 126.407 235.84 128.56 235.84C130.94 235.84 132.867 234.65 134.34 232.27C135.927 229.89 136.947 226.037 137.4 220.71C137.627 219.123 138.363 218.33 139.61 218.33C140.97 218.33 141.65 219.18 141.65 220.88C141.31 229.607 139.497 235.897 136.21 239.75C133.037 243.603 129.297 245.53 124.99 245.53ZM176.634 245.53C171.194 245.53 166.321 243.717 162.014 240.09C157.707 236.463 154.251 231.363 151.644 224.79C149.151 218.103 147.904 210.397 147.904 201.67C147.904 192.717 149.207 184.84 151.814 178.04C154.421 171.24 157.991 165.913 162.524 162.06C167.057 158.207 172.101 156.28 177.654 156.28C184.341 156.28 189.724 159.057 193.804 164.61C197.997 170.05 200.094 178.947 200.094 191.3C200.094 195.04 198.677 196.91 195.844 196.91H163.544C161.277 196.91 160.144 198.213 160.144 200.82C160.144 212.833 161.901 221.843 165.414 227.85C168.927 233.857 173.404 236.86 178.844 236.86C183.151 236.86 186.664 235.33 189.384 232.27C192.104 229.21 194.314 224.053 196.014 216.8C196.354 215.553 197.091 214.93 198.224 214.93C199.584 214.93 200.094 216.063 199.754 218.33C197.941 228.417 195.051 235.5 191.084 239.58C187.117 243.547 182.301 245.53 176.634 245.53ZM163.034 192.66H180.204C185.644 192.66 188.364 189.827 188.364 184.16C188.364 176.793 187.457 171.013 185.644 166.82C183.831 162.627 181.111 160.53 177.484 160.53C173.064 160.53 169.324 163.08 166.264 168.18C163.317 173.28 161.391 180.533 160.484 189.94C160.257 191.753 161.107 192.66 163.034 192.66ZM209.524 244C207.824 244 206.974 243.377 206.974 242.13C206.974 241.11 207.71 240.43 209.184 240.09L211.224 239.75C213.604 239.297 215.134 238.617 215.814 237.71C216.607 236.69 217.004 234.99 217.004 232.61V175.49C217.004 173.45 216.664 172.09 215.984 171.41C215.417 170.617 214.34 170.107 212.754 169.88L209.184 169.37C207.71 169.257 206.974 168.633 206.974 167.5C206.974 166.593 207.88 165.97 209.694 165.63C213.207 165.063 215.87 164.157 217.684 162.91C219.61 161.663 221.594 160.133 223.634 158.32C224.654 157.3 225.504 156.79 226.184 156.79C227.204 156.79 227.714 157.47 227.714 158.83V166.48C227.714 167.5 228.054 168.18 228.734 168.52C229.527 168.747 230.377 168.407 231.284 167.5C235.817 163.193 239.784 160.247 243.184 158.66C246.697 157.073 250.38 156.28 254.234 156.28C259.334 156.28 263.414 158.093 266.474 161.72C269.534 165.233 271.064 170.447 271.064 177.36V232.61C271.064 234.99 271.404 236.69 272.084 237.71C272.877 238.617 274.464 239.24 276.844 239.58L280.584 240.09C281.83 240.317 282.454 240.997 282.454 242.13C282.454 243.377 281.774 244 280.414 244H251.854C250.267 244 249.474 243.377 249.474 242.13C249.474 240.997 250.097 240.317 251.344 240.09L253.724 239.75C256.104 239.41 257.634 238.73 258.314 237.71C259.107 236.69 259.504 234.99 259.504 232.61V179.23C259.504 173.677 258.484 169.767 256.444 167.5C254.404 165.233 251.514 164.1 247.774 164.1C244.147 164.1 240.86 165.177 237.914 167.33C235.08 169.37 232.814 172.147 231.114 175.66C229.414 179.06 228.564 182.857 228.564 187.05V232.61C228.564 234.99 228.904 236.69 229.584 237.71C230.377 238.73 231.964 239.353 234.344 239.58L238.934 240.09C240.18 240.317 240.804 240.94 240.804 241.96C240.804 243.32 239.954 244 238.254 244H209.524ZM316.917 245.53C311.477 245.53 306.604 243.717 302.297 240.09C297.991 236.463 294.534 231.363 291.927 224.79C289.434 218.103 288.187 210.397 288.187 201.67C288.187 192.717 289.491 184.84 292.097 178.04C294.704 171.24 298.274 165.913 302.807 162.06C307.341 158.207 312.384 156.28 317.937 156.28C324.624 156.28 330.007 159.057 334.087 164.61C338.281 170.05 340.377 178.947 340.377 191.3C340.377 195.04 338.961 196.91 336.127 196.91H303.827C301.561 196.91 300.427 198.213 300.427 200.82C300.427 212.833 302.184 221.843 305.697 227.85C309.211 233.857 313.687 236.86 319.127 236.86C323.434 236.86 326.947 235.33 329.667 232.27C332.387 229.21 334.597 224.053 336.297 216.8C336.637 215.553 337.374 214.93 338.507 214.93C339.867 214.93 340.377 216.063 340.037 218.33C338.224 228.417 335.334 235.5 331.367 239.58C327.401 243.547 322.584 245.53 316.917 245.53ZM303.317 192.66H320.487C325.927 192.66 328.647 189.827 328.647 184.16C328.647 176.793 327.741 171.013 325.927 166.82C324.114 162.627 321.394 160.53 317.767 160.53C313.347 160.53 309.607 163.08 306.547 168.18C303.601 173.28 301.674 180.533 300.767 189.94C300.541 191.753 301.391 192.66 303.317 192.66ZM365.107 245.53C360.347 245.53 356.437 244.057 353.377 241.11C350.317 238.05 348.787 234.027 348.787 229.04C348.787 224.167 350.317 219.577 353.377 215.27C356.437 210.85 360.63 206.883 365.957 203.37C371.284 199.857 377.347 197.023 384.147 194.87C385.62 194.417 386.357 193.453 386.357 191.98V176.51C386.357 171.07 385.507 167.217 383.807 164.95C382.107 162.57 379.784 161.38 376.837 161.38C374.004 161.38 371.397 162.683 369.017 165.29C366.75 167.783 365.107 172.033 364.087 178.04C363.52 181.667 362.274 184.33 360.347 186.03C358.534 187.617 356.664 188.41 354.737 188.41C351.564 188.41 349.977 186.823 349.977 183.65C349.977 180.363 350.884 177.133 352.697 173.96C354.624 170.673 357.117 167.727 360.177 165.12C363.237 162.4 366.58 160.247 370.207 158.66C373.834 157.073 377.46 156.28 381.087 156.28C392.307 156.28 397.917 162.797 397.917 175.83V227.85C397.917 232.61 399.107 234.99 401.487 234.99C402.96 234.99 404.32 234.027 405.567 232.1C406.814 230.06 407.437 226.66 407.437 221.9C407.437 220.087 408.174 219.18 409.647 219.18C411.007 219.18 411.687 220.143 411.687 222.07C411.687 230.343 410.214 236.35 407.267 240.09C404.434 243.717 401.204 245.53 397.577 245.53C394.857 245.53 392.704 244.453 391.117 242.3C389.53 240.033 388.454 237.37 387.887 234.31C387.774 233.177 387.264 232.61 386.357 232.61C385.564 232.497 384.77 233.007 383.977 234.14C381.257 237.88 378.48 240.713 375.647 242.64C372.814 244.567 369.3 245.53 365.107 245.53ZM369.697 237.71C372.644 237.71 375.364 236.69 377.857 234.65C380.35 232.497 382.39 229.663 383.977 226.15C385.564 222.637 386.357 218.67 386.357 214.25V201.84C386.357 199.687 385.167 199.063 382.787 199.97C375.874 202.463 370.49 205.92 366.637 210.34C362.897 214.647 361.027 219.86 361.027 225.98C361.027 233.8 363.917 237.71 369.697 237.71Z" fill="#BDDAFE"/>
<path d="M2.46 244C1.1 244 0.42 243.433 0.42 242.3C0.42 241.28 1.32667 240.543 3.14 240.09L5.86 239.58C8.12667 239.127 10.11 238.05 11.81 236.35C13.3967 234.537 14.9267 232.043 16.4 228.87L67.23 122.62C67.7967 121.487 68.3633 120.75 68.93 120.41C69.4967 120.07 70.0067 119.9 70.46 119.9C71.0267 119.9 71.48 120.07 71.82 120.41C72.2733 120.75 72.5 121.487 72.5 122.62L74.37 230.4C74.4833 233.573 74.88 235.783 75.56 237.03C76.24 238.163 77.6567 239.013 79.81 239.58L82.02 240.09C83.38 240.43 84.06 241.11 84.06 242.13C84.06 243.377 83.0967 244 81.17 244H53.12C51.6467 244 50.91 243.433 50.91 242.3C50.91 241.053 52.0433 240.317 54.31 240.09L57.71 239.75C59.6367 239.523 60.94 238.9 61.62 237.88C62.4133 236.86 62.81 235.103 62.81 232.61L62.47 206.26C62.47 203.313 60.94 201.84 57.88 201.84H39.69C36.7433 201.84 34.5333 203.313 33.06 206.26L22.01 229.04C18.95 235.5 19.97 239.07 25.07 239.75L27.45 240.09C29.15 240.317 30 240.997 30 242.13C30 243.377 29.0367 244 27.11 244H2.46ZM40.37 196.74H59.41C61.3367 196.74 62.3 195.777 62.3 193.85L61.96 147.44H61.11L38.84 193.85C38.3867 194.643 38.33 195.323 38.67 195.89C39.01 196.457 39.5767 196.74 40.37 196.74Z" fill="#BDDAFE"/>
<path d="M41.8052 27.6307C33.2708 28.4896 26.2636 37.9423 27.0621 49.0453C27.7475 58.5759 34.4109 66.3965 42.2097 65.3498C48.749 64.4727 54.1138 57.068 53.2458 48.4461C52.5403 41.4419 47.48 35.6849 41.6357 36.8608C37.0983 37.7738 33.3464 43.1977 34.3817 49.3674C34.7569 51.6027 35.7721 53.5425 37.2176 54.8582C38.663 56.1738 40.6782 56.8189 42.6413 56.0285C43.9273 55.511 44.9539 54.4721 45.6497 52.9791C46.3456 51.4856 46.5714 49.1586 45.641 47.311C44.8909 45.8208 44.2025 45.5258 43.1222 45.2961C42.5823 45.1812 41.827 45.1387 41.0232 45.7998C40.2195 46.461 39.7936 47.828 39.7936 48.7946C39.7861 49.5325 40.012 50.2434 40.4217 50.7686C40.2072 50.6908 39.9945 50.5814 39.7691 50.3759C39.2427 49.8965 38.7893 49.0266 38.6539 48.2207C38.1913 45.4634 40.0648 42.7708 42.3211 42.3162C45.5309 41.67 48.4996 45.0508 48.912 49.1426C49.4497 54.4842 45.9664 59.2901 41.748 59.8557C36.5169 60.5577 31.8856 55.1222 31.4125 48.5438C30.8455 40.6636 35.9626 33.7594 42.1516 33.1369C42.2066 33.1314 42.2621 33.1281 42.3171 33.1242H129.683C129.738 33.1297 129.793 33.132 129.848 33.1369C136.037 33.7594 141.154 40.6636 140.587 48.5449C140.114 55.1238 135.483 60.5588 130.252 59.8568C126.033 59.2906 122.549 54.4848 123.088 49.1437C123.5 45.0514 126.468 41.6711 129.678 42.3173C131.935 42.7713 133.808 45.464 133.345 48.2218C133.21 49.0277 132.756 49.8982 132.23 50.377C132.005 50.582 131.793 50.6919 131.579 50.7697C131.988 50.2439 132.213 49.5331 132.206 48.7957C132.206 47.8291 131.781 46.4621 130.977 45.8009C130.173 45.1398 129.419 45.1823 128.878 45.2972C127.798 45.527 127.109 45.8225 126.359 47.3121C125.429 49.1591 125.655 51.4867 126.351 52.9802C127.047 54.4737 128.073 55.5127 129.359 56.0297C131.322 56.8195 133.337 56.1749 134.782 54.8593C136.227 53.5436 137.243 51.6038 137.618 49.3685C138.653 43.1994 134.901 37.7755 130.364 36.8619C124.52 35.686 119.459 41.443 118.754 48.4472C117.886 57.0692 123.252 64.4732 129.791 65.3509C137.59 66.397 144.252 58.577 144.938 49.0459C145.736 37.9428 138.729 28.4896 130.195 27.6312C130.017 27.597 129.854 27.6108 129.684 27.6064H42.3176C42.1476 27.5931 41.9677 27.6163 41.8052 27.6307ZM33.5801 0C32.374 0 31.3959 1.23668 31.3959 2.76169V8.28506C31.3959 9.01746 31.6261 9.72003 32.0359 10.2376L40.7725 21.2843C41.1823 21.8024 41.7375 22.0935 42.3167 22.0935H129.683C130.262 22.0935 130.818 21.8024 131.227 21.2843L139.964 10.2376C140.373 9.71948 140.604 9.01746 140.604 8.28506V2.76169C140.604 1.23668 139.626 0 138.419 0H33.5801ZM35.7642 5.52337H136.235V7.14062L128.778 16.5701H43.2209L35.7642 7.14062V5.52337ZM59.7899 44.187C58.5838 44.187 57.6058 45.4237 57.6058 46.9487V124.276C57.6062 125.801 64.5553 142.917 65.5769 131.574C65.2183 131.876 71.5789 135.032 65.5769 131.574L67.8462 120.231C68.4429 119.729 63.5631 122.076 72.3846 115.694L75.0786 63.5652C75.0786 63.5497 75.0786 63.5343 75.0786 63.5188C75.0786 61.7071 79.4722 61.6558 79.4469 63.4691C79.4469 63.4857 79.4469 63.5022 79.4469 63.5188V107.706C79.4473 109.231 82.5242 245.001 83.7308 245C84.1619 245 95.5891 238.497 95.9477 238.194V98.9568C96.5554 98.4447 96.9201 97.5825 96.9206 96.659V63.5188C96.9206 61.6745 101.289 61.6745 101.289 63.5188V91.1357C101.289 92.6612 98.4029 159.666 101.885 158.796C110.962 156.528 108.389 154.451 108.692 154.259L115.5 151.991C116.24 151.523 114.394 86.6579 114.394 85.6117V46.9481C114.394 45.4231 113.416 44.1864 112.21 44.1864L59.7899 44.187ZM61.9741 49.7104H110.025L113.231 147.454L106.423 151.991L105.657 63.5188C105.657 54.3124 92.5523 54.3124 92.5523 63.5188L90.5385 235.926H86L83.8156 63.5188V63.5674C83.9454 54.3301 70.7116 54.2798 70.7116 63.5188V63.4713L70.0511 112.308L61.975 119.116L61.9741 49.7104Z" fill="#0C3BEB"/>
</svg>
