<svg width="610" height="369" viewBox="0 0 610 369" fill="none" xmlns="http://www.w3.org/2000/svg">
<rect x="7" y="14" width="600" height="350" rx="25" fill="#010515"/>
<rect x="7" y="7" width="596" height="355" rx="27" stroke="#D9D9D9" stroke-width="14"/>
<path d="M332.384 271.957C341.592 271.957 349.037 279.596 349.037 288.995C349.037 298.394 341.592 306.033 332.384 306.033C323.175 306.033 315.731 298.394 315.73 288.995C315.73 279.596 323.175 271.957 332.384 271.957Z" fill="#0225A7" stroke="#0D1529"/>
<path d="M248.646 91.2605C242.168 92.4027 235.989 87.952 234.825 81.3487C233.661 74.7455 237.945 68.4499 244.422 67.3077C250.9 66.1656 257.079 70.6163 258.243 77.2195C259.407 83.8227 255.123 90.1182 248.646 91.2605Z" fill="#0225A7" stroke="#0D1529"/>
<path d="M333.226 248.696L333.226 202.543C389.378 202.543 387.84 123.7 333.226 123.7C321.666 126.183 316.752 129.964 309.765 139.468" stroke="#0225A7" stroke-opacity="0.81" stroke-width="35" stroke-linecap="round"/>
<path d="M252.767 113.824L258.418 145.872C219.426 152.747 230.148 207.307 268.071 200.62C275.794 197.48 278.744 194.253 282.432 186.798" stroke="#0225A7" stroke-opacity="0.81" stroke-width="35" stroke-linecap="round"/>
</svg>
